<svg version="1.0" xmlns="http://www.w3.org/2000/svg" width="1706.667" height="1082.667" viewBox="0 0 1280 812">
    <path
        d="M407 1.6C262.8 13.3 167.1 26.4 100.4 43.5 55.8 55 24 69.7 10.5 85.2 5 91.6.9 100.9.2 108.5c-.4 5.4 0 7.7 2.2 13.7 5 13.9 15 23.6 34.6 33.7 29.8 15.3 65.8 26.5 185.5 57.6 119.8 31.1 166.7 48.1 183.9 66.5 5.5 5.9 5.3 6.8-2.3 12.4-12.5 9.2-37.4 18.5-100.1 37.2-62.9 18.8-92.7 29.3-114.2 40-24.8 12.4-38.2 23.7-45.5 38.5-2.4 4.8-2.7 6.6-2.8 15.5 0 9.9.1 10.2 4.3 18.8 3.5 6.9 6.1 10.5 13 17.5 10.4 10.4 20.2 17.1 37.7 25.6 29.7 14.4 61.6 23.6 153 44 109.2 24.3 158.8 39.2 206.1 62 49.2 23.6 80 48.5 106.9 86.5 9.9 13.9 25.6 30.7 38.5 41 26.4 21.1 65.3 41 108.5 55.7 52 17.6 112.9 30 172 35l9 .8-14.5.5c-8 .3 19.1.7 60.2.8 45.9.1 76.4-.2 79-.8 2.4-.5 10.4-1.7 17.8-2.5 46.6-5.5 90.1-19.3 113.8-36.2 39.7-28.2 44-67 12.5-111.5-8.2-11.5-32.3-35.7-45.3-45.4-53.4-39.9-127.4-71-238-99.9-43.4-11.3-88.4-21.2-184.5-40.5-101.8-20.4-112.8-22.8-140-29.7-34.2-8.6-59.3-18.3-66.2-25.5-1.8-1.8-3.9-4.9-4.7-6.8-1.3-3.2-1.3-3.9.1-6.8 4.8-10 26.7-19.1 82.9-34.6 60.5-16.8 82-24.9 98.6-37.4 15.8-11.9 21.4-28.3 15.3-44.9-10.5-28.3-50-50.2-133.5-74.2-49.3-14.1-94.9-24.4-218-49.2-93.2-18.8-120.6-24.6-149-31.6-48-11.8-74.3-21.8-79.3-30.1-6.2-10.6 3.4-21.3 30.6-34.2C265.6 52.3 336.9 35.1 424 22.9c8.5-1.2 17-2.7 18.8-3.5 6.7-2.7 7.8-13.8 1.7-17.8-3-2-13.4-2-37.5 0z"
        fill="#2196f3" />
</svg>